<svg preserveAspectRatio="none" width="100%" height="100%" overflow="visible" style="display: block;" viewBox="0 0 367 92" fill="none" xmlns="http://www.w3.org/2000/svg">
<g id="Rectangle Copy 21" filter="url(#filter0_d_3141_20115)">
<path fill-rule="evenodd" clip-rule="evenodd" d="M16 20C16 15.5817 19.5817 12 24 12H343C347.418 12 351 15.5817 351 20V64C351 68.4183 347.418 72 343 72H24C19.5817 72 16 68.4183 16 64V20Z" fill="var(--fill-0, white)"/>
<path d="M24 12.5H343C347.142 12.5 350.5 15.8579 350.5 20V64C350.5 68.1421 347.142 71.5 343 71.5H24C19.8579 71.5 16.5 68.1421 16.5 64V20L16.5098 19.6143C16.7105 15.6514 19.9872 12.5 24 12.5Z" stroke="var(--stroke-0, #F6F8FA)"/>
</g>
<defs>
<filter id="filter0_d_3141_20115" x="0" y="0" width="367" height="92" filterUnits="userSpaceOnUse" color-interpolation-filters="sRGB">
<feFlood flood-opacity="0" result="BackgroundImageFix"/>
<feColorMatrix in="SourceAlpha" type="matrix" values="0 0 0 0 0 0 0 0 0 0 0 0 0 0 0 0 0 0 127 0" result="hardAlpha"/>
<feOffset dy="4"/>
<feGaussianBlur stdDeviation="8"/>
<feColorMatrix type="matrix" values="0 0 0 0 0 0 0 0 0 0 0 0 0 0 0 0 0 0 0.05 0"/>
<feBlend mode="normal" in2="BackgroundImageFix" result="effect1_dropShadow_3141_20115"/>
<feBlend mode="normal" in="SourceGraphic" in2="effect1_dropShadow_3141_20115" result="shape"/>
</filter>
</defs>
</svg>
