<svg preserveAspectRatio="none" width="100%" height="100%" overflow="visible" style="display: block;" viewBox="0 0 22 33" fill="none" xmlns="http://www.w3.org/2000/svg">
<g id="shinhan">
<path id="Rectangle" d="M0 1.95938C0 0.877243 0.923413 0 2.0625 0L19.9375 0C21.0766 0 22 0.877242 22 1.95938V31.0406C22 32.1228 21.0766 33 19.9375 33H2.0625C0.923414 33 0 32.1228 0 31.0406V1.95938Z" fill="url(#paint0_linear_3141_20096)"/>
<g id="Group 7789">
<mask id="mask0_3141_20096" style="mask-type:alpha" maskUnits="userSpaceOnUse" x="0" y="0" width="22" height="29">
<path id="Rectangle_2" d="M0 1.95937C0 0.877242 0.923413 0 2.0625 0L19.9375 0C21.0766 0 22 0.877242 22 1.95938V26.6839C22 27.766 21.0766 28.6432 19.9375 28.6432H2.0625C0.923414 28.6432 0 27.766 0 26.6839L0 1.95937Z" fill="var(--fill-0, #2B40AB)"/>
</mask>
<g mask="url(#mask0_3141_20096)">
<path id="Rectangle_3" opacity="0.2" d="M22 0L0 0L0 5.79918L22 25.1083V0Z" fill="url(#paint1_linear_3141_20096)"/>
<g id="Group">
<path id="Rectangle_4" d="M13.4492 5.94324C13.4492 5.58253 13.757 5.29011 14.1367 5.29011L16.2354 5.29011C16.6151 5.29011 16.9229 5.58253 16.9229 5.94324V9.03699C16.9229 9.3977 16.6151 9.69011 16.2354 9.69011H14.1367C13.757 9.69011 13.4492 9.3977 13.4492 9.03699V5.94324Z" fill="var(--fill-0, white)"/>
</g>
</g>
</g>
</g>
<defs>
<linearGradient id="paint0_linear_3141_20096" x1="0.39403" y1="1.21659" x2="28.5967" y2="8.95344" gradientUnits="userSpaceOnUse">
<stop stop-color="#0DC56C"/>
<stop offset="1" stop-color="#09AA9E"/>
</linearGradient>
<linearGradient id="paint1_linear_3141_20096" x1="21.0497" y1="7.66281e-07" x2="5.44785" y2="9.99733e-08" gradientUnits="userSpaceOnUse">
<stop stop-color="white"/>
<stop offset="1" stop-color="white" stop-opacity="0"/>
</linearGradient>
</defs>
</svg>
