<svg preserveAspectRatio="none" width="100%" height="100%" overflow="visible" style="display: block;" viewBox="0 0 367 165" fill="none" xmlns="http://www.w3.org/2000/svg">
<g id="Rectangle Copy 24" filter="url(#filter0_d_3141_20131)">
<path fill-rule="evenodd" clip-rule="evenodd" d="M16 20C16 15.5817 19.5817 12 24 12H343C347.418 12 351 15.5817 351 20V137C351 141.418 347.418 145 343 145H24C19.5817 145 16 141.418 16 137V20Z" fill="var(--fill-0, white)"/>
<path d="M24 12.5H343C347.142 12.5 350.5 15.8579 350.5 20V137C350.5 141.142 347.142 144.5 343 144.5H24C19.8579 144.5 16.5 141.142 16.5 137V20C16.5 15.8579 19.8579 12.5 24 12.5Z" stroke="var(--stroke-0, #F6F8FA)"/>
</g>
<defs>
<filter id="filter0_d_3141_20131" x="0" y="0" width="367" height="165" filterUnits="userSpaceOnUse" color-interpolation-filters="sRGB">
<feFlood flood-opacity="0" result="BackgroundImageFix"/>
<feColorMatrix in="SourceAlpha" type="matrix" values="0 0 0 0 0 0 0 0 0 0 0 0 0 0 0 0 0 0 127 0" result="hardAlpha"/>
<feOffset dy="4"/>
<feGaussianBlur stdDeviation="8"/>
<feColorMatrix type="matrix" values="0 0 0 0 0 0 0 0 0 0 0 0 0 0 0 0 0 0 0.05 0"/>
<feBlend mode="normal" in2="BackgroundImageFix" result="effect1_dropShadow_3141_20131"/>
<feBlend mode="normal" in="SourceGraphic" in2="effect1_dropShadow_3141_20131" result="shape"/>
</filter>
</defs>
</svg>
