<svg preserveAspectRatio="none" width="100%" height="100%" overflow="visible" style="display: block;" viewBox="0 0 20 23.0001" fill="none" xmlns="http://www.w3.org/2000/svg">
<g id="Group 2612684">
<g id="Union">
<mask id="path-1-inside-1_3141_20062" fill="white">
<path fill-rule="evenodd" clip-rule="evenodd" d="M7.49437 4.69906L4.97137 0.814988C4.74338 0.463999 4.99527 0 5.41381 0H14.5813C14.9998 0 15.2517 0.463999 15.0237 0.814988L12.5014 4.69797C16.8138 5.80857 20 9.72347 20 14.3826V16.1542C20 19.9351 16.935 23.0001 13.1541 23.0001H6.84589C3.06501 23.0001 0 19.9351 0 16.1542V14.3826C0 9.72499 3.18416 5.81113 7.49437 4.69906Z"/>
</mask>
<path fill-rule="evenodd" clip-rule="evenodd" d="M7.49437 4.69906L4.97137 0.814988C4.74338 0.463999 4.99527 0 5.41381 0H14.5813C14.9998 0 15.2517 0.463999 15.0237 0.814988L12.5014 4.69797C16.8138 5.80857 20 9.72347 20 14.3826V16.1542C20 19.9351 16.935 23.0001 13.1541 23.0001H6.84589C3.06501 23.0001 0 19.9351 0 16.1542V14.3826C0 9.72499 3.18416 5.81113 7.49437 4.69906Z" fill="#31B6FF"/>
<path d="M7.49437 4.69906L7.61928 5.18321L8.29229 5.00957L7.91367 4.42669L7.49437 4.69906ZM4.97137 0.814988L5.39068 0.54262V0.542619L4.97137 0.814988ZM15.0237 0.814988L15.443 1.08736L15.443 1.08736L15.0237 0.814988ZM12.5014 4.69797L12.0821 4.4256L11.7033 5.00875L12.3767 5.18217L12.5014 4.69797ZM7.49437 4.69906L7.91367 4.42669L5.39068 0.54262L4.97137 0.814988L4.55207 1.08736L7.07506 4.97143L7.49437 4.69906ZM4.97137 0.814988L5.39068 0.542619C5.38752 0.53776 5.38642 0.534678 5.38601 0.533334C5.38557 0.531886 5.38538 0.530644 5.38536 0.529308C5.38529 0.526307 5.38609 0.520828 5.38957 0.514427C5.39304 0.508025 5.3972 0.504373 5.39975 0.502791C5.40089 0.502085 5.40203 0.501563 5.40348 0.501144C5.40483 0.500756 5.40802 0.5 5.41381 0.5V0V-0.5C4.59862 -0.5 4.108 0.403734 4.55207 1.08736L4.97137 0.814988ZM5.41381 0V0.5H14.5813V0V-0.5H5.41381V0ZM14.5813 0V0.5C14.587 0.5 14.5902 0.500756 14.5916 0.501144C14.593 0.501563 14.5942 0.502086 14.5953 0.502791C14.5979 0.504373 14.602 0.508025 14.6055 0.514427C14.609 0.520828 14.6098 0.526307 14.6097 0.529308C14.6097 0.530645 14.6095 0.531886 14.6091 0.533335C14.6086 0.534678 14.6075 0.537761 14.6044 0.54262L15.0237 0.814988L15.443 1.08736C15.8871 0.403733 15.3964 -0.5 14.5813 -0.5V0ZM15.0237 0.814988L14.6044 0.542619L12.0821 4.4256L12.5014 4.69797L12.9207 4.97034L15.443 1.08736L15.0237 0.814988ZM12.5014 4.69797L12.3767 5.18217C16.4736 6.23727 19.5 9.95712 19.5 14.3826H20H20.5C20.5 9.48983 17.154 5.37987 12.6261 4.21377L12.5014 4.69797ZM20 14.3826H19.5V16.1542H20H20.5V14.3826H20ZM20 16.1542H19.5C19.5 19.659 16.6588 22.5001 13.1541 22.5001V23.0001V23.5001C17.2111 23.5001 20.5 20.2113 20.5 16.1542H20ZM13.1541 23.0001V22.5001H6.84589V23.0001V23.5001H13.1541V23.0001ZM6.84589 23.0001V22.5001C3.34115 22.5001 0.5 19.659 0.5 16.1542H0H-0.5C-0.5 20.2113 2.78887 23.5001 6.84589 23.5001V23.0001ZM0 16.1542H0.5V14.3826H0H-0.5V16.1542H0ZM0 14.3826H0.5C0.5 9.95856 3.52447 6.2397 7.61928 5.18321L7.49437 4.69906L7.36945 4.21492C2.84384 5.38256 -0.5 9.49143 -0.5 14.3826H0Z" fill="var(--stroke-0, black)" fill-opacity="0.1" mask="url(#path-1-inside-1_3141_20062)"/>
</g>
<rect id="Rectangle 608" x="6.10676" y="3.28595" width="7.77778" height="2.1903" rx="1.09515" fill="var(--fill-0, #2390CB)"/>
<path id="Union_2" d="M7.24902 10.9957C7.28171 10.9958 7.31016 11.0185 7.31738 11.0504L8.16016 14.817C8.17566 14.8862 8.27306 14.891 8.2959 14.8238L9.55078 11.1314C9.5783 11.0505 9.65381 10.9959 9.73926 10.9957H10.2607C10.3462 10.9959 10.4217 11.0505 10.4492 11.1314L11.7041 14.8238C11.7269 14.891 11.8243 14.8862 11.8398 14.817L12.6826 11.0504C12.6898 11.0185 12.7183 10.9958 12.751 10.9957H14.0186C14.0635 10.9958 14.0969 11.0377 14.0869 11.0816L13.543 13.4683H14.3379C14.4272 13.4683 14.4998 13.5412 14.5 13.6304V14.7603C14.5 14.8498 14.4273 14.9224 14.3379 14.9224H13.2109L12.6494 17.3843C12.6421 17.4163 12.6138 17.439 12.5811 17.439H11.2588C11.2286 17.439 11.202 17.4197 11.1924 17.3912L10.0625 14.0201C10.0522 13.9896 10.0265 13.9751 10 13.9742C9.97353 13.9751 9.94781 13.9896 9.9375 14.0201L8.80762 17.3912C8.79798 17.4197 8.77136 17.439 8.74121 17.439H7.41895C7.38616 17.439 7.35787 17.4163 7.35059 17.3843L6.78906 14.9224H5.66211C5.57267 14.9224 5.5 14.8498 5.5 14.7603V13.6304C5.5002 13.5412 5.57279 13.4683 5.66211 13.4683H6.45703L5.91309 11.0816C5.90308 11.0377 5.93648 10.9958 5.98145 10.9957H7.24902Z" fill="var(--fill-0, black)"/>
</g>
</svg>
